<mxfile host="app.diagrams.net" agent="Mozilla/5.0 (Windows NT 10.0; Win64; x64) AppleWebKit/537.36 (KHTML, like Gecko) Chrome/131.0.0.0 Safari/537.36" version="25.0.3">
  <diagram id="prtHgNgQTEPvFCAcTncT" name="Page-1">
    <mxGraphModel dx="1615" dy="803" grid="1" gridSize="10" guides="1" tooltips="1" connect="1" arrows="1" fold="1" page="1" pageScale="1" pageWidth="827" pageHeight="1169" math="0" shadow="0">
      <root>
        <mxCell id="0" />
        <mxCell id="1" parent="0" />
        <mxCell id="dNxyNK7c78bLwvsdeMH5-11" value="Bookstore Logical Model" style="swimlane;html=1;startSize=20;horizontal=1;containerType=tree;glass=0;" parent="1" vertex="1">
          <mxGeometry y="200" width="960" height="750" as="geometry" />
        </mxCell>
        <mxCell id="d8qmcgOsmMIcODJ5APxC-32" value="customer" style="swimlane;whiteSpace=wrap;html=1;" parent="dNxyNK7c78bLwvsdeMH5-11" vertex="1">
          <mxGeometry x="690" y="27.5" width="150" height="220" as="geometry" />
        </mxCell>
        <mxCell id="d8qmcgOsmMIcODJ5APxC-33" value="&lt;b&gt;customer_id&amp;nbsp; &lt;/b&gt;PK" style="text;html=1;align=center;verticalAlign=middle;resizable=0;points=[];autosize=1;strokeColor=none;fillColor=none;" parent="d8qmcgOsmMIcODJ5APxC-32" vertex="1">
          <mxGeometry x="-5" y="30" width="120" height="30" as="geometry" />
        </mxCell>
        <mxCell id="d8qmcgOsmMIcODJ5APxC-34" value="customer_first_name" style="text;html=1;align=center;verticalAlign=middle;resizable=0;points=[];autosize=1;strokeColor=none;fillColor=none;" parent="d8qmcgOsmMIcODJ5APxC-32" vertex="1">
          <mxGeometry x="-6" y="60" width="140" height="30" as="geometry" />
        </mxCell>
        <mxCell id="d8qmcgOsmMIcODJ5APxC-35" value="customer_last_name" style="text;html=1;align=center;verticalAlign=middle;resizable=0;points=[];autosize=1;strokeColor=none;fillColor=none;" parent="d8qmcgOsmMIcODJ5APxC-32" vertex="1">
          <mxGeometry x="-1" y="90" width="130" height="30" as="geometry" />
        </mxCell>
        <mxCell id="d8qmcgOsmMIcODJ5APxC-37" value="customer_postal_code" style="text;html=1;align=center;verticalAlign=middle;resizable=0;points=[];autosize=1;strokeColor=none;fillColor=none;" parent="d8qmcgOsmMIcODJ5APxC-32" vertex="1">
          <mxGeometry x="-1" y="120" width="140" height="30" as="geometry" />
        </mxCell>
        <mxCell id="k57DOfLclZUct2LWt8lC-11" value="customer_email" style="text;html=1;align=center;verticalAlign=middle;resizable=0;points=[];autosize=1;strokeColor=none;fillColor=none;" vertex="1" parent="d8qmcgOsmMIcODJ5APxC-32">
          <mxGeometry x="-4" y="150" width="110" height="30" as="geometry" />
        </mxCell>
        <mxCell id="d8qmcgOsmMIcODJ5APxC-38" value="sales" style="swimlane;whiteSpace=wrap;html=1;" parent="dNxyNK7c78bLwvsdeMH5-11" vertex="1">
          <mxGeometry x="340" y="25" width="160" height="175" as="geometry" />
        </mxCell>
        <mxCell id="d8qmcgOsmMIcODJ5APxC-39" value="product_id FK" style="text;html=1;align=center;verticalAlign=middle;resizable=0;points=[];autosize=1;strokeColor=none;fillColor=none;" parent="d8qmcgOsmMIcODJ5APxC-38" vertex="1">
          <mxGeometry x="2" y="81.5" width="100" height="30" as="geometry" />
        </mxCell>
        <mxCell id="d8qmcgOsmMIcODJ5APxC-43" value="quantity" style="text;html=1;align=center;verticalAlign=middle;resizable=0;points=[];autosize=1;strokeColor=none;fillColor=none;" parent="d8qmcgOsmMIcODJ5APxC-38" vertex="1">
          <mxGeometry x="2" y="111.5" width="70" height="30" as="geometry" />
        </mxCell>
        <mxCell id="d8qmcgOsmMIcODJ5APxC-44" value="sale_price" style="text;html=1;align=center;verticalAlign=middle;resizable=0;points=[];autosize=1;strokeColor=none;fillColor=none;" parent="d8qmcgOsmMIcODJ5APxC-38" vertex="1">
          <mxGeometry x="1" y="141.5" width="80" height="30" as="geometry" />
        </mxCell>
        <mxCell id="k57DOfLclZUct2LWt8lC-12" value="&lt;b&gt;sale_id PK&lt;/b&gt;" style="text;html=1;align=center;verticalAlign=middle;resizable=0;points=[];autosize=1;strokeColor=none;fillColor=none;" vertex="1" parent="d8qmcgOsmMIcODJ5APxC-38">
          <mxGeometry x="5" y="22.5" width="80" height="30" as="geometry" />
        </mxCell>
        <mxCell id="k57DOfLclZUct2LWt8lC-29" value="order_id FK" style="text;html=1;align=center;verticalAlign=middle;resizable=0;points=[];autosize=1;strokeColor=none;fillColor=none;" vertex="1" parent="d8qmcgOsmMIcODJ5APxC-38">
          <mxGeometry y="52.5" width="90" height="30" as="geometry" />
        </mxCell>
        <mxCell id="d8qmcgOsmMIcODJ5APxC-56" value="" style="shape=partialRectangle;whiteSpace=wrap;html=1;top=0;left=0;fillColor=none;" parent="dNxyNK7c78bLwvsdeMH5-11" vertex="1">
          <mxGeometry x="280" y="150" width="360" height="130" as="geometry" />
        </mxCell>
        <mxCell id="d8qmcgOsmMIcODJ5APxC-57" value="" style="shape=partialRectangle;whiteSpace=wrap;html=1;bottom=0;right=0;fillColor=none;" parent="dNxyNK7c78bLwvsdeMH5-11" vertex="1">
          <mxGeometry x="640" y="90" width="50" height="60" as="geometry" />
        </mxCell>
        <mxCell id="d8qmcgOsmMIcODJ5APxC-58" value="1" style="text;html=1;align=center;verticalAlign=middle;resizable=0;points=[];autosize=1;strokeColor=none;fillColor=none;" parent="dNxyNK7c78bLwvsdeMH5-11" vertex="1">
          <mxGeometry x="660" y="60" width="30" height="30" as="geometry" />
        </mxCell>
        <mxCell id="d8qmcgOsmMIcODJ5APxC-59" value="&lt;b&gt;&lt;font style=&quot;font-size: 20px;&quot;&gt;âˆž&lt;/font&gt;&lt;/b&gt;" style="text;html=1;align=center;verticalAlign=middle;resizable=0;points=[];autosize=1;strokeColor=none;fillColor=none;" parent="dNxyNK7c78bLwvsdeMH5-11" vertex="1">
          <mxGeometry x="270" y="247.5" width="40" height="40" as="geometry" />
        </mxCell>
        <mxCell id="k57DOfLclZUct2LWt8lC-1" value="book" style="swimlane;whiteSpace=wrap;html=1;" vertex="1" parent="dNxyNK7c78bLwvsdeMH5-11">
          <mxGeometry x="690" y="280" width="150" height="210" as="geometry" />
        </mxCell>
        <mxCell id="k57DOfLclZUct2LWt8lC-2" value="&lt;b&gt;book_id PK&lt;/b&gt;" style="text;html=1;align=center;verticalAlign=middle;resizable=0;points=[];autosize=1;strokeColor=none;fillColor=none;" vertex="1" parent="k57DOfLclZUct2LWt8lC-1">
          <mxGeometry x="2" y="22.5" width="90" height="30" as="geometry" />
        </mxCell>
        <mxCell id="k57DOfLclZUct2LWt8lC-3" value="title" style="text;html=1;align=left;verticalAlign=middle;resizable=0;points=[];autosize=1;strokeColor=none;fillColor=none;" vertex="1" parent="k57DOfLclZUct2LWt8lC-1">
          <mxGeometry x="12" y="52.5" width="40" height="30" as="geometry" />
        </mxCell>
        <mxCell id="k57DOfLclZUct2LWt8lC-4" value="author" style="text;html=1;align=center;verticalAlign=middle;resizable=0;points=[];autosize=1;strokeColor=none;fillColor=none;" vertex="1" parent="k57DOfLclZUct2LWt8lC-1">
          <mxGeometry x="4" y="82.5" width="60" height="30" as="geometry" />
        </mxCell>
        <mxCell id="k57DOfLclZUct2LWt8lC-5" value="genre" style="text;html=1;align=center;verticalAlign=middle;resizable=0;points=[];autosize=1;strokeColor=none;fillColor=none;" vertex="1" parent="k57DOfLclZUct2LWt8lC-1">
          <mxGeometry x="7" y="112.5" width="50" height="30" as="geometry" />
        </mxCell>
        <mxCell id="k57DOfLclZUct2LWt8lC-6" value="price" style="text;html=1;align=left;verticalAlign=middle;resizable=0;points=[];autosize=1;strokeColor=none;fillColor=none;" vertex="1" parent="k57DOfLclZUct2LWt8lC-1">
          <mxGeometry x="12" y="142.5" width="50" height="30" as="geometry" />
        </mxCell>
        <mxCell id="k57DOfLclZUct2LWt8lC-7" value="stock_quantity" style="text;html=1;align=left;verticalAlign=middle;resizable=0;points=[];autosize=1;strokeColor=none;fillColor=none;" vertex="1" parent="k57DOfLclZUct2LWt8lC-1">
          <mxGeometry x="12" y="172.5" width="100" height="30" as="geometry" />
        </mxCell>
        <mxCell id="k57DOfLclZUct2LWt8lC-8" value="" style="shape=partialRectangle;whiteSpace=wrap;html=1;top=0;left=0;fillColor=none;direction=south;" vertex="1" parent="dNxyNK7c78bLwvsdeMH5-11">
          <mxGeometry x="410" y="200" width="280" height="140" as="geometry" />
        </mxCell>
        <mxCell id="k57DOfLclZUct2LWt8lC-9" value="1" style="text;html=1;align=center;verticalAlign=middle;resizable=0;points=[];autosize=1;strokeColor=none;fillColor=none;" vertex="1" parent="dNxyNK7c78bLwvsdeMH5-11">
          <mxGeometry x="650" y="310" width="30" height="30" as="geometry" />
        </mxCell>
        <mxCell id="k57DOfLclZUct2LWt8lC-20" value="o&lt;span style=&quot;background-color: initial;&quot;&gt;rder&lt;/span&gt;" style="swimlane;whiteSpace=wrap;html=1;" vertex="1" parent="dNxyNK7c78bLwvsdeMH5-11">
          <mxGeometry x="120" y="27.5" width="160" height="265" as="geometry" />
        </mxCell>
        <mxCell id="k57DOfLclZUct2LWt8lC-22" value="customer_id FK" style="text;html=1;align=center;verticalAlign=middle;resizable=0;points=[];autosize=1;strokeColor=none;fillColor=none;" vertex="1" parent="k57DOfLclZUct2LWt8lC-20">
          <mxGeometry x="-6" y="52.5" width="110" height="30" as="geometry" />
        </mxCell>
        <mxCell id="k57DOfLclZUct2LWt8lC-23" value="employee_id FK" style="text;html=1;align=center;verticalAlign=middle;resizable=0;points=[];autosize=1;strokeColor=none;fillColor=none;" vertex="1" parent="k57DOfLclZUct2LWt8lC-20">
          <mxGeometry x="-4" y="112.5" width="110" height="30" as="geometry" />
        </mxCell>
        <mxCell id="k57DOfLclZUct2LWt8lC-24" value="total_amount" style="text;html=1;align=center;verticalAlign=middle;resizable=0;points=[];autosize=1;strokeColor=none;fillColor=none;" vertex="1" parent="k57DOfLclZUct2LWt8lC-20">
          <mxGeometry x="-2" y="142.5" width="90" height="30" as="geometry" />
        </mxCell>
        <mxCell id="k57DOfLclZUct2LWt8lC-26" value="&lt;b&gt;order_id PK&lt;/b&gt;" style="text;html=1;align=center;verticalAlign=middle;resizable=0;points=[];autosize=1;strokeColor=none;fillColor=none;" vertex="1" parent="k57DOfLclZUct2LWt8lC-20">
          <mxGeometry x="-4" y="22.5" width="90" height="30" as="geometry" />
        </mxCell>
        <mxCell id="k57DOfLclZUct2LWt8lC-27" value="order_date FK" style="text;html=1;align=center;verticalAlign=middle;resizable=0;points=[];autosize=1;strokeColor=none;fillColor=none;" vertex="1" parent="k57DOfLclZUct2LWt8lC-20">
          <mxGeometry x="-4" y="82.5" width="100" height="30" as="geometry" />
        </mxCell>
        <mxCell id="k57DOfLclZUct2LWt8lC-30" value="employee" style="swimlane;whiteSpace=wrap;html=1;" vertex="1" parent="dNxyNK7c78bLwvsdeMH5-11">
          <mxGeometry x="120" y="340" width="160" height="250" as="geometry" />
        </mxCell>
        <mxCell id="k57DOfLclZUct2LWt8lC-31" value="&lt;b&gt;employee_id PK&lt;/b&gt;" style="text;html=1;align=center;verticalAlign=middle;resizable=0;points=[];autosize=1;strokeColor=none;fillColor=none;" vertex="1" parent="k57DOfLclZUct2LWt8lC-30">
          <mxGeometry x="-5" y="30" width="120" height="30" as="geometry" />
        </mxCell>
        <mxCell id="k57DOfLclZUct2LWt8lC-32" value="employee_first_name" style="text;html=1;align=center;verticalAlign=middle;resizable=0;points=[];autosize=1;strokeColor=none;fillColor=none;" vertex="1" parent="k57DOfLclZUct2LWt8lC-30">
          <mxGeometry x="-6" y="60" width="140" height="30" as="geometry" />
        </mxCell>
        <mxCell id="k57DOfLclZUct2LWt8lC-33" value="employee_last_name" style="text;html=1;align=center;verticalAlign=middle;resizable=0;points=[];autosize=1;strokeColor=none;fillColor=none;" vertex="1" parent="k57DOfLclZUct2LWt8lC-30">
          <mxGeometry x="-6" y="90" width="140" height="30" as="geometry" />
        </mxCell>
        <mxCell id="k57DOfLclZUct2LWt8lC-34" value="employee_position" style="text;html=1;align=center;verticalAlign=middle;resizable=0;points=[];autosize=1;strokeColor=none;fillColor=none;" vertex="1" parent="k57DOfLclZUct2LWt8lC-30">
          <mxGeometry y="180" width="120" height="30" as="geometry" />
        </mxCell>
        <mxCell id="k57DOfLclZUct2LWt8lC-35" value="employee_email" style="text;html=1;align=center;verticalAlign=middle;resizable=0;points=[];autosize=1;strokeColor=none;fillColor=none;" vertex="1" parent="k57DOfLclZUct2LWt8lC-30">
          <mxGeometry x="-3" y="120" width="110" height="30" as="geometry" />
        </mxCell>
        <mxCell id="k57DOfLclZUct2LWt8lC-36" value="employee_phone" style="text;html=1;align=center;verticalAlign=middle;resizable=0;points=[];autosize=1;strokeColor=none;fillColor=none;" vertex="1" parent="k57DOfLclZUct2LWt8lC-30">
          <mxGeometry x="-5" y="150" width="120" height="30" as="geometry" />
        </mxCell>
        <mxCell id="k57DOfLclZUct2LWt8lC-37" value="hire_date" style="text;html=1;align=center;verticalAlign=middle;resizable=0;points=[];autosize=1;strokeColor=none;fillColor=none;" vertex="1" parent="k57DOfLclZUct2LWt8lC-30">
          <mxGeometry y="210" width="70" height="30" as="geometry" />
        </mxCell>
        <mxCell id="k57DOfLclZUct2LWt8lC-38" value="date" style="swimlane;whiteSpace=wrap;html=1;" vertex="1" parent="dNxyNK7c78bLwvsdeMH5-11">
          <mxGeometry x="460" y="450" width="160" height="280" as="geometry" />
        </mxCell>
        <mxCell id="k57DOfLclZUct2LWt8lC-39" value="&lt;b&gt;date PK&lt;/b&gt;" style="text;html=1;align=center;verticalAlign=middle;resizable=0;points=[];autosize=1;strokeColor=none;fillColor=none;" vertex="1" parent="k57DOfLclZUct2LWt8lC-38">
          <mxGeometry x="-1" y="30" width="70" height="30" as="geometry" />
        </mxCell>
        <mxCell id="k57DOfLclZUct2LWt8lC-40" value="day" style="text;html=1;align=center;verticalAlign=middle;resizable=0;points=[];autosize=1;strokeColor=none;fillColor=none;" vertex="1" parent="k57DOfLclZUct2LWt8lC-38">
          <mxGeometry x="2" y="60" width="40" height="30" as="geometry" />
        </mxCell>
        <mxCell id="k57DOfLclZUct2LWt8lC-41" value="month" style="text;html=1;align=center;verticalAlign=middle;resizable=0;points=[];autosize=1;strokeColor=none;fillColor=none;" vertex="1" parent="k57DOfLclZUct2LWt8lC-38">
          <mxGeometry y="90" width="60" height="30" as="geometry" />
        </mxCell>
        <mxCell id="k57DOfLclZUct2LWt8lC-42" value="day_name" style="text;html=1;align=center;verticalAlign=middle;resizable=0;points=[];autosize=1;strokeColor=none;fillColor=none;" vertex="1" parent="k57DOfLclZUct2LWt8lC-38">
          <mxGeometry y="180" width="80" height="30" as="geometry" />
        </mxCell>
        <mxCell id="k57DOfLclZUct2LWt8lC-43" value="quarter" style="text;html=1;align=center;verticalAlign=middle;resizable=0;points=[];autosize=1;strokeColor=none;fillColor=none;" vertex="1" parent="k57DOfLclZUct2LWt8lC-38">
          <mxGeometry x="2" y="120" width="60" height="30" as="geometry" />
        </mxCell>
        <mxCell id="k57DOfLclZUct2LWt8lC-44" value="year" style="text;html=1;align=center;verticalAlign=middle;resizable=0;points=[];autosize=1;strokeColor=none;fillColor=none;" vertex="1" parent="k57DOfLclZUct2LWt8lC-38">
          <mxGeometry x="2" y="150" width="50" height="30" as="geometry" />
        </mxCell>
        <mxCell id="k57DOfLclZUct2LWt8lC-45" value="month_name" style="text;html=1;align=center;verticalAlign=middle;resizable=0;points=[];autosize=1;strokeColor=none;fillColor=none;" vertex="1" parent="k57DOfLclZUct2LWt8lC-38">
          <mxGeometry x="-2" y="213" width="90" height="30" as="geometry" />
        </mxCell>
        <mxCell id="k57DOfLclZUct2LWt8lC-46" value="is_weekend" style="text;html=1;align=center;verticalAlign=middle;resizable=0;points=[];autosize=1;strokeColor=none;fillColor=none;" vertex="1" parent="k57DOfLclZUct2LWt8lC-38">
          <mxGeometry x="-4" y="240" width="90" height="30" as="geometry" />
        </mxCell>
        <mxCell id="k57DOfLclZUct2LWt8lC-48" value="" style="shape=partialRectangle;whiteSpace=wrap;html=1;top=0;left=0;fillColor=none;direction=south;" vertex="1" parent="dNxyNK7c78bLwvsdeMH5-11">
          <mxGeometry x="450" y="340" width="240" as="geometry" />
        </mxCell>
        <mxCell id="k57DOfLclZUct2LWt8lC-49" value="" style="endArrow=none;html=1;rounded=0;" edge="1" parent="dNxyNK7c78bLwvsdeMH5-11">
          <mxGeometry width="50" height="50" relative="1" as="geometry">
            <mxPoint x="280" y="147.63" as="sourcePoint" />
            <mxPoint x="340" y="147" as="targetPoint" />
          </mxGeometry>
        </mxCell>
        <mxCell id="k57DOfLclZUct2LWt8lC-50" value="&lt;b&gt;&lt;font style=&quot;font-size: 20px;&quot;&gt;âˆž&lt;/font&gt;&lt;/b&gt;" style="text;html=1;align=center;verticalAlign=middle;resizable=0;points=[];autosize=1;strokeColor=none;fillColor=none;" vertex="1" parent="dNxyNK7c78bLwvsdeMH5-11">
          <mxGeometry x="310" y="117.5" width="40" height="40" as="geometry" />
        </mxCell>
        <mxCell id="k57DOfLclZUct2LWt8lC-52" value="" style="shape=partialRectangle;whiteSpace=wrap;html=1;top=0;left=0;fillColor=none;direction=south;" vertex="1" parent="dNxyNK7c78bLwvsdeMH5-11">
          <mxGeometry x="490" y="220" width="130" height="230" as="geometry" />
        </mxCell>
        <mxCell id="k57DOfLclZUct2LWt8lC-53" value="" style="endArrow=none;html=1;rounded=0;entryX=0;entryY=1;entryDx=0;entryDy=0;" edge="1" parent="dNxyNK7c78bLwvsdeMH5-11" target="k57DOfLclZUct2LWt8lC-52">
          <mxGeometry width="50" height="50" relative="1" as="geometry">
            <mxPoint x="280" y="220" as="sourcePoint" />
            <mxPoint x="310" y="240" as="targetPoint" />
          </mxGeometry>
        </mxCell>
        <mxCell id="k57DOfLclZUct2LWt8lC-54" value="&lt;b&gt;&lt;font style=&quot;font-size: 20px;&quot;&gt;âˆž&lt;/font&gt;&lt;/b&gt;" style="text;html=1;align=center;verticalAlign=middle;resizable=0;points=[];autosize=1;strokeColor=none;fillColor=none;" vertex="1" parent="dNxyNK7c78bLwvsdeMH5-11">
          <mxGeometry x="270" y="180" width="40" height="40" as="geometry" />
        </mxCell>
        <mxCell id="k57DOfLclZUct2LWt8lC-57" value="1" style="text;html=1;align=center;verticalAlign=middle;resizable=0;points=[];autosize=1;strokeColor=none;fillColor=none;" vertex="1" parent="dNxyNK7c78bLwvsdeMH5-11">
          <mxGeometry x="490" y="420" width="30" height="30" as="geometry" />
        </mxCell>
        <mxCell id="k57DOfLclZUct2LWt8lC-28" value="&lt;b&gt;&lt;font style=&quot;font-size: 20px;&quot;&gt;âˆž&lt;/font&gt;&lt;/b&gt;" style="text;html=1;align=center;verticalAlign=middle;resizable=0;points=[];autosize=1;strokeColor=none;fillColor=none;" vertex="1" parent="dNxyNK7c78bLwvsdeMH5-11">
          <mxGeometry x="201" y="280" width="40" height="40" as="geometry" />
        </mxCell>
        <mxCell id="k57DOfLclZUct2LWt8lC-58" value="" style="endArrow=none;html=1;rounded=0;exitX=0.5;exitY=0;exitDx=0;exitDy=0;entryX=-0.013;entryY=0.348;entryDx=0;entryDy=0;entryPerimeter=0;" edge="1" parent="dNxyNK7c78bLwvsdeMH5-11" source="k57DOfLclZUct2LWt8lC-30" target="k57DOfLclZUct2LWt8lC-28">
          <mxGeometry width="50" height="50" relative="1" as="geometry">
            <mxPoint x="151" y="342.5" as="sourcePoint" />
            <mxPoint x="200" y="300" as="targetPoint" />
          </mxGeometry>
        </mxCell>
        <mxCell id="k57DOfLclZUct2LWt8lC-59" value="1" style="text;html=1;align=center;verticalAlign=middle;resizable=0;points=[];autosize=1;strokeColor=none;fillColor=none;" vertex="1" parent="dNxyNK7c78bLwvsdeMH5-11">
          <mxGeometry x="201" y="310" width="30" height="30" as="geometry" />
        </mxCell>
        <mxCell id="k57DOfLclZUct2LWt8lC-10" value="&lt;b&gt;&lt;font style=&quot;font-size: 20px;&quot;&gt;âˆž&lt;/font&gt;&lt;/b&gt;" style="text;html=1;align=center;verticalAlign=middle;resizable=0;points=[];autosize=1;strokeColor=none;fillColor=none;" vertex="1" parent="dNxyNK7c78bLwvsdeMH5-11">
          <mxGeometry x="380" y="190" width="40" height="40" as="geometry" />
        </mxCell>
        <mxCell id="k57DOfLclZUct2LWt8lC-51" value="1" style="text;html=1;align=center;verticalAlign=middle;resizable=0;points=[];autosize=1;strokeColor=none;fillColor=none;" vertex="1" parent="dNxyNK7c78bLwvsdeMH5-11">
          <mxGeometry x="280" y="120" width="30" height="30" as="geometry" />
        </mxCell>
      </root>
    </mxGraphModel>
  </diagram>
</mxfile>
